<svg xmlns="http://www.w3.org/2000/svg" viewBox="0 0 900 600" role="img" aria-label="Fierro Corrugado 1/2">
  <defs>
    <linearGradient id="bg" x1="0" x2="1" y1="0" y2="1">
      <stop offset="0" stop-color="#f8fbff"/>
      <stop offset="1" stop-color="#e7edf3"/>
    </linearGradient>
    <linearGradient id="accent" x1="0" x2="1" y1="0" y2="1">
      <stop offset="0" stop-color="#566775"/>
      <stop offset="1" stop-color="#1f6f8f"/>
    </linearGradient>
    <filter id="shadow" x="-30%" y="-30%" width="160%" height="160%">
      <feDropShadow dx="0" dy="18" stdDeviation="14" flood-color="#1b2b38" flood-opacity=".20"/>
    </filter>
    <style>
      .line{fill:none;stroke:#263947;stroke-width:14;stroke-linecap:round;stroke-linejoin:round}
      .thin{fill:none;stroke:#263947;stroke-width:8;stroke-linecap:round;stroke-linejoin:round}
      .label{font-family:Arial,Helvetica,sans-serif;font-weight:800;fill:#263947;letter-spacing:1px}
      .small{font-family:Arial,Helvetica,sans-serif;font-weight:700;fill:#5b6b76}
    </style>
  </defs>
  <rect width="900" height="600" fill="url(#bg)"/>
  <circle cx="745" cy="100" r="115" fill="#566775" opacity=".12"/>
  <circle cx="120" cy="500" r="130" fill="#19a7ce" opacity=".10"/>
  <ellipse cx="450" cy="505" rx="330" ry="45" fill="#1b2b38" opacity=".10"/>

  <g filter="url(#shadow)">
    <rect x="218" y="160" width="470" height="250" rx="28" fill="#f8fbff" opacity=".78"/>
    <path d="M230 214 L660 140" class="line" stroke="#495965"/><path d="M260 192.8372093023256 l28 20" class="thin" stroke="#7c8a94"/><path d="M318 182.85581395348837 l28 20" class="thin" stroke="#7c8a94"/><path d="M376 172.87441860465117 l28 20" class="thin" stroke="#7c8a94"/><path d="M434 162.89302325581394 l28 20" class="thin" stroke="#7c8a94"/><path d="M492 152.91162790697675 l28 20" class="thin" stroke="#7c8a94"/><path d="M550 142.93023255813955 l28 20" class="thin" stroke="#7c8a94"/><path d="M608 132.94883720930233 l28 20" class="thin" stroke="#7c8a94"/><path d="M230 248 L660 174" class="line" stroke="#495965"/><path d="M260 226.8372093023256 l28 20" class="thin" stroke="#7c8a94"/><path d="M318 216.85581395348837 l28 20" class="thin" stroke="#7c8a94"/><path d="M376 206.87441860465117 l28 20" class="thin" stroke="#7c8a94"/><path d="M434 196.89302325581394 l28 20" class="thin" stroke="#7c8a94"/><path d="M492 186.91162790697675 l28 20" class="thin" stroke="#7c8a94"/><path d="M550 176.93023255813955 l28 20" class="thin" stroke="#7c8a94"/><path d="M608 166.94883720930233 l28 20" class="thin" stroke="#7c8a94"/><path d="M230 282 L660 208" class="line" stroke="#495965"/><path d="M260 260.83720930232556 l28 20" class="thin" stroke="#7c8a94"/><path d="M318 250.8558139534884 l28 20" class="thin" stroke="#7c8a94"/><path d="M376 240.87441860465117 l28 20" class="thin" stroke="#7c8a94"/><path d="M434 230.89302325581394 l28 20" class="thin" stroke="#7c8a94"/><path d="M492 220.91162790697675 l28 20" class="thin" stroke="#7c8a94"/><path d="M550 210.93023255813955 l28 20" class="thin" stroke="#7c8a94"/><path d="M608 200.94883720930233 l28 20" class="thin" stroke="#7c8a94"/><path d="M230 316 L660 242" class="line" stroke="#495965"/><path d="M260 294.83720930232556 l28 20" class="thin" stroke="#7c8a94"/><path d="M318 284.8558139534884 l28 20" class="thin" stroke="#7c8a94"/><path d="M376 274.87441860465117 l28 20" class="thin" stroke="#7c8a94"/><path d="M434 264.89302325581394 l28 20" class="thin" stroke="#7c8a94"/><path d="M492 254.91162790697672 l28 20" class="thin" stroke="#7c8a94"/><path d="M550 244.93023255813955 l28 20" class="thin" stroke="#7c8a94"/><path d="M608 234.94883720930233 l28 20" class="thin" stroke="#7c8a94"/>
    <circle cx="664" cy="140" r="18" fill="#566775" stroke="#263947" stroke-width="7"/>
    <circle cx="686" cy="173" r="18" fill="#566775" stroke="#263947" stroke-width="7"/>
    <circle cx="708" cy="206" r="18" fill="#566775" stroke="#263947" stroke-width="7"/>
    <text x="450" y="470" font-size="44" text-anchor="middle" class="label">FIERRO 1/2"</text>
  </g>
</svg>
