<svg xmlns="http://www.w3.org/2000/svg" viewBox="0 0 900 600" role="img" aria-label="Ladrillo King Kong 18 Huecos">
  <defs>
    <linearGradient id="bg" x1="0" x2="1" y1="0" y2="1">
      <stop offset="0" stop-color="#f8fbff"/>
      <stop offset="1" stop-color="#e7edf3"/>
    </linearGradient>
    <linearGradient id="accent" x1="0" x2="1" y1="0" y2="1">
      <stop offset="0" stop-color="#c8673b"/>
      <stop offset="1" stop-color="#1f6f8f"/>
    </linearGradient>
    <filter id="shadow" x="-30%" y="-30%" width="160%" height="160%">
      <feDropShadow dx="0" dy="18" stdDeviation="14" flood-color="#1b2b38" flood-opacity=".20"/>
    </filter>
    <style>
      .line{fill:none;stroke:#263947;stroke-width:14;stroke-linecap:round;stroke-linejoin:round}
      .thin{fill:none;stroke:#263947;stroke-width:8;stroke-linecap:round;stroke-linejoin:round}
      .label{font-family:Arial,Helvetica,sans-serif;font-weight:800;fill:#263947;letter-spacing:1px}
      .small{font-family:Arial,Helvetica,sans-serif;font-weight:700;fill:#5b6b76}
    </style>
  </defs>
  <rect width="900" height="600" fill="url(#bg)"/>
  <circle cx="745" cy="100" r="115" fill="#c8673b" opacity=".12"/>
  <circle cx="120" cy="500" r="130" fill="#19a7ce" opacity=".10"/>
  <ellipse cx="450" cy="505" rx="330" ry="45" fill="#1b2b38" opacity=".10"/>

  <g filter="url(#shadow)">
    <rect x="235" y="210" width="130" height="58" rx="8" fill="#c8673b" stroke="#263947" stroke-width="7"/><rect x="259" y="228" width="28" height="22" rx="10" fill="#8d3f25" opacity=".85"/><rect x="313" y="228" width="28" height="22" rx="10" fill="#8d3f25" opacity=".85"/><rect x="380" y="210" width="130" height="58" rx="8" fill="#c8673b" stroke="#263947" stroke-width="7"/><rect x="404" y="228" width="28" height="22" rx="10" fill="#8d3f25" opacity=".85"/><rect x="458" y="228" width="28" height="22" rx="10" fill="#8d3f25" opacity=".85"/><rect x="525" y="210" width="130" height="58" rx="8" fill="#c8673b" stroke="#263947" stroke-width="7"/><rect x="549" y="228" width="28" height="22" rx="10" fill="#8d3f25" opacity=".85"/><rect x="603" y="228" width="28" height="22" rx="10" fill="#8d3f25" opacity=".85"/><rect x="307" y="285" width="130" height="58" rx="8" fill="#c8673b" stroke="#263947" stroke-width="7"/><rect x="331" y="303" width="28" height="22" rx="10" fill="#8d3f25" opacity=".85"/><rect x="385" y="303" width="28" height="22" rx="10" fill="#8d3f25" opacity=".85"/><rect x="452" y="285" width="130" height="58" rx="8" fill="#c8673b" stroke="#263947" stroke-width="7"/><rect x="476" y="303" width="28" height="22" rx="10" fill="#8d3f25" opacity=".85"/><rect x="530" y="303" width="28" height="22" rx="10" fill="#8d3f25" opacity=".85"/><rect x="597" y="285" width="130" height="58" rx="8" fill="#c8673b" stroke="#263947" stroke-width="7"/><rect x="621" y="303" width="28" height="22" rx="10" fill="#8d3f25" opacity=".85"/><rect x="675" y="303" width="28" height="22" rx="10" fill="#8d3f25" opacity=".85"/><rect x="235" y="360" width="130" height="58" rx="8" fill="#c8673b" stroke="#263947" stroke-width="7"/><rect x="259" y="378" width="28" height="22" rx="10" fill="#8d3f25" opacity=".85"/><rect x="313" y="378" width="28" height="22" rx="10" fill="#8d3f25" opacity=".85"/><rect x="380" y="360" width="130" height="58" rx="8" fill="#c8673b" stroke="#263947" stroke-width="7"/><rect x="404" y="378" width="28" height="22" rx="10" fill="#8d3f25" opacity=".85"/><rect x="458" y="378" width="28" height="22" rx="10" fill="#8d3f25" opacity=".85"/><rect x="525" y="360" width="130" height="58" rx="8" fill="#c8673b" stroke="#263947" stroke-width="7"/><rect x="549" y="378" width="28" height="22" rx="10" fill="#8d3f25" opacity=".85"/><rect x="603" y="378" width="28" height="22" rx="10" fill="#8d3f25" opacity=".85"/>
    <text x="450" y="470" font-size="34" text-anchor="middle" class="label">LADRILLO 18 HUECOS</text>
  </g>
</svg>
