<svg xmlns="http://www.w3.org/2000/svg" viewBox="0 0 900 600" role="img" aria-label="Clavos para madera">
  <defs>
    <linearGradient id="bg" x1="0" x2="1" y1="0" y2="1">
      <stop offset="0" stop-color="#f8fbff"/>
      <stop offset="1" stop-color="#e7edf3"/>
    </linearGradient>
    <linearGradient id="accent" x1="0" x2="1" y1="0" y2="1">
      <stop offset="0" stop-color="#a8b3bc"/>
      <stop offset="1" stop-color="#1f6f8f"/>
    </linearGradient>
    <filter id="shadow" x="-30%" y="-30%" width="160%" height="160%">
      <feDropShadow dx="0" dy="18" stdDeviation="14" flood-color="#1b2b38" flood-opacity=".20"/>
    </filter>
    <style>
      .line{fill:none;stroke:#263947;stroke-width:14;stroke-linecap:round;stroke-linejoin:round}
      .thin{fill:none;stroke:#263947;stroke-width:8;stroke-linecap:round;stroke-linejoin:round}
      .label{font-family:Arial,Helvetica,sans-serif;font-weight:800;fill:#263947;letter-spacing:1px}
      .small{font-family:Arial,Helvetica,sans-serif;font-weight:700;fill:#5b6b76}
    </style>
  </defs>
  <rect width="900" height="600" fill="url(#bg)"/>
  <circle cx="745" cy="100" r="115" fill="#a8b3bc" opacity=".12"/>
  <circle cx="120" cy="500" r="130" fill="#19a7ce" opacity=".10"/>
  <ellipse cx="450" cy="505" rx="330" ry="45" fill="#1b2b38" opacity=".10"/>

  <g filter="url(#shadow)">
    <g transform="translate(300 300) rotate(-20)"><line x1="0" y1="-120" x2="0" y2="98" class="line" stroke="#a8b3bc"/><ellipse cx="0" cy="-130" rx="35" ry="13" fill="#d9e0e6" stroke="#263947" stroke-width="7"/><path d="M-16 98h32l-16 40z" fill="#7f8b95" stroke="#263947" stroke-width="6"/></g><g transform="translate(378 300) rotate(-8)"><line x1="0" y1="-120" x2="0" y2="98" class="line" stroke="#a8b3bc"/><ellipse cx="0" cy="-130" rx="35" ry="13" fill="#d9e0e6" stroke="#263947" stroke-width="7"/><path d="M-16 98h32l-16 40z" fill="#7f8b95" stroke="#263947" stroke-width="6"/></g><g transform="translate(456 300) rotate(5)"><line x1="0" y1="-120" x2="0" y2="98" class="line" stroke="#a8b3bc"/><ellipse cx="0" cy="-130" rx="35" ry="13" fill="#d9e0e6" stroke="#263947" stroke-width="7"/><path d="M-16 98h32l-16 40z" fill="#7f8b95" stroke="#263947" stroke-width="6"/></g><g transform="translate(534 300) rotate(17)"><line x1="0" y1="-120" x2="0" y2="98" class="line" stroke="#a8b3bc"/><ellipse cx="0" cy="-130" rx="35" ry="13" fill="#d9e0e6" stroke="#263947" stroke-width="7"/><path d="M-16 98h32l-16 40z" fill="#7f8b95" stroke="#263947" stroke-width="6"/></g><g transform="translate(612 300) rotate(28)"><line x1="0" y1="-120" x2="0" y2="98" class="line" stroke="#a8b3bc"/><ellipse cx="0" cy="-130" rx="35" ry="13" fill="#d9e0e6" stroke="#263947" stroke-width="7"/><path d="M-16 98h32l-16 40z" fill="#7f8b95" stroke="#263947" stroke-width="6"/></g>
    <text x="450" y="490" font-size="38" text-anchor="middle" class="label">CLAVOS 3"</text>
  </g>
</svg>
