<svg xmlns="http://www.w3.org/2000/svg" viewBox="0 0 900 600" role="img" aria-label="Pintura Latex Lavable">
  <defs>
    <linearGradient id="bg" x1="0" x2="1" y1="0" y2="1">
      <stop offset="0" stop-color="#f8fbff"/>
      <stop offset="1" stop-color="#e7edf3"/>
    </linearGradient>
    <linearGradient id="accent" x1="0" x2="1" y1="0" y2="1">
      <stop offset="0" stop-color="#19a7ce"/>
      <stop offset="1" stop-color="#1f6f8f"/>
    </linearGradient>
    <filter id="shadow" x="-30%" y="-30%" width="160%" height="160%">
      <feDropShadow dx="0" dy="18" stdDeviation="14" flood-color="#1b2b38" flood-opacity=".20"/>
    </filter>
    <style>
      .line{fill:none;stroke:#263947;stroke-width:14;stroke-linecap:round;stroke-linejoin:round}
      .thin{fill:none;stroke:#263947;stroke-width:8;stroke-linecap:round;stroke-linejoin:round}
      .label{font-family:Arial,Helvetica,sans-serif;font-weight:800;fill:#263947;letter-spacing:1px}
      .small{font-family:Arial,Helvetica,sans-serif;font-weight:700;fill:#5b6b76}
    </style>
  </defs>
  <rect width="900" height="600" fill="url(#bg)"/>
  <circle cx="745" cy="100" r="115" fill="#19a7ce" opacity=".12"/>
  <circle cx="120" cy="500" r="130" fill="#19a7ce" opacity=".10"/>
  <ellipse cx="450" cy="505" rx="330" ry="45" fill="#1b2b38" opacity=".10"/>

  <g filter="url(#shadow)">
    <path d="M316 214h244l-25 218H340z" fill="#f4f7f9" stroke="#263947" stroke-width="10" join="round"/>
    <path d="M316 214c54 30 190 30 244 0" fill="none" stroke="#263947" stroke-width="10"/>
    <path d="M340 292h195v80H340z" fill="url(#accent)"/>
    <path d="M586 185c76 23 86 88 18 116" class="thin"/>
    <rect x="606" y="290" width="46" height="136" rx="18" fill="#2b3944" transform="rotate(20 629 358)"/>
    <rect x="635" y="212" width="118" height="48" rx="20" fill="#19a7ce" stroke="#263947" stroke-width="8" transform="rotate(20 694 236)"/>
    <text x="438" y="346" font-size="32" text-anchor="middle" class="label" fill="#fff">LATEX</text>
  </g>
</svg>
