<svg xmlns="http://www.w3.org/2000/svg" viewBox="0 0 900 600" role="img" aria-label="Mezcladora para lavatorio">
  <defs>
    <linearGradient id="bg" x1="0" x2="1" y1="0" y2="1">
      <stop offset="0" stop-color="#f8fbff"/>
      <stop offset="1" stop-color="#e7edf3"/>
    </linearGradient>
    <linearGradient id="accent" x1="0" x2="1" y1="0" y2="1">
      <stop offset="0" stop-color="#9ba8b2"/>
      <stop offset="1" stop-color="#1f6f8f"/>
    </linearGradient>
    <filter id="shadow" x="-30%" y="-30%" width="160%" height="160%">
      <feDropShadow dx="0" dy="18" stdDeviation="14" flood-color="#1b2b38" flood-opacity=".20"/>
    </filter>
    <style>
      .line{fill:none;stroke:#263947;stroke-width:14;stroke-linecap:round;stroke-linejoin:round}
      .thin{fill:none;stroke:#263947;stroke-width:8;stroke-linecap:round;stroke-linejoin:round}
      .label{font-family:Arial,Helvetica,sans-serif;font-weight:800;fill:#263947;letter-spacing:1px}
      .small{font-family:Arial,Helvetica,sans-serif;font-weight:700;fill:#5b6b76}
    </style>
  </defs>
  <rect width="900" height="600" fill="url(#bg)"/>
  <circle cx="745" cy="100" r="115" fill="#9ba8b2" opacity=".12"/>
  <circle cx="120" cy="500" r="130" fill="#19a7ce" opacity=".10"/>
  <ellipse cx="450" cy="505" rx="330" ry="45" fill="#1b2b38" opacity=".10"/>

  <g filter="url(#shadow)">
    <path d="M328 315h230c64 0 86-74 24-104-48-23-117 2-116 62" class="line" stroke="#9ba8b2"/>
    <path d="M330 315v98" class="line" stroke="#7e8b95"/>
    <path d="M530 315v98" class="line" stroke="#7e8b95"/>
    <rect x="294" y="402" width="272" height="42" rx="20" fill="#dce3e9" stroke="#263947" stroke-width="8"/>
    <path d="M447 208v-48M402 160h90" class="line" stroke="#9ba8b2"/>
    <path d="M612 315c38 20 34 68-8 84" class="line" stroke="#9ba8b2"/>
    <text x="450" y="506" font-size="34" text-anchor="middle" class="label">MEZCLADORA</text>
  </g>
</svg>
